<svg width="1152" height="878" viewBox="0 0 1152 878" fill="none" xmlns="http://www.w3.org/2000/svg">
<rect width="1152" height="878" fill="white"/>
<path d="M408 242C408 236.477 412.477 232 418 232H734C739.523 232 744 236.477 744 242V260H408V242Z" fill="#FFDC40"/>
<path d="M530.173 285.956H524.625V301H520.169V285.956H514.723V282.516H530.173V285.956ZM528.688 294.005C528.688 292.634 528.954 291.415 529.487 290.349C530.021 289.274 530.786 288.449 531.785 287.873C532.784 287.298 533.956 287.01 535.302 287.01C537.358 287.01 538.979 287.649 540.164 288.927C541.349 290.196 541.941 291.927 541.941 294.119V294.271C541.941 296.413 541.345 298.114 540.151 299.375C538.966 300.628 537.358 301.254 535.327 301.254C533.372 301.254 531.802 300.67 530.617 299.502C529.432 298.326 528.793 296.734 528.7 294.729L528.688 294.005ZM532.966 294.271C532.966 295.541 533.165 296.472 533.562 297.064C533.96 297.657 534.549 297.953 535.327 297.953C536.851 297.953 537.629 296.781 537.663 294.437V294.005C537.663 291.542 536.876 290.311 535.302 290.311C533.871 290.311 533.097 291.373 532.979 293.497L532.966 294.271ZM552.187 294.69H544.557V291.377H552.187V294.69ZM555.729 301V282.516H561.683C563.316 282.516 564.785 282.888 566.088 283.633C567.391 284.369 568.407 285.414 569.135 286.769C569.871 288.114 570.243 289.625 570.252 291.301V292.151C570.252 293.844 569.892 295.363 569.173 296.709C568.462 298.046 567.455 299.096 566.151 299.857C564.856 300.611 563.409 300.992 561.81 301H555.729ZM560.185 285.956V297.572H561.733C563.011 297.572 563.993 297.119 564.679 296.214C565.364 295.3 565.707 293.946 565.707 292.151V291.352C565.707 289.566 565.364 288.22 564.679 287.314C563.993 286.409 562.994 285.956 561.683 285.956H560.185ZM571.801 294.005C571.801 292.634 572.067 291.415 572.601 290.349C573.134 289.274 573.9 288.449 574.898 287.873C575.897 287.298 577.069 287.01 578.415 287.01C580.472 287.01 582.092 287.649 583.277 288.927C584.462 290.196 585.055 291.927 585.055 294.119V294.271C585.055 296.413 584.458 298.114 583.265 299.375C582.08 300.628 580.472 301.254 578.44 301.254C576.485 301.254 574.915 300.67 573.73 299.502C572.546 298.326 571.907 296.734 571.813 294.729L571.801 294.005ZM576.079 294.271C576.079 295.541 576.278 296.472 576.676 297.064C577.074 297.657 577.662 297.953 578.44 297.953C579.964 297.953 580.743 296.781 580.776 294.437V294.005C580.776 291.542 579.989 290.311 578.415 290.311C576.985 290.311 576.21 291.373 576.092 293.497L576.079 294.271ZM598.067 297.572H605.824V301H593.611V282.516H598.067V297.572ZM612.02 301H607.729V287.264H612.02V301ZM607.475 283.722C607.475 283.112 607.695 282.613 608.135 282.224C608.575 281.834 609.146 281.64 609.849 281.64C610.551 281.64 611.122 281.834 611.562 282.224C612.003 282.613 612.223 283.112 612.223 283.722C612.223 284.331 612.003 284.83 611.562 285.22C611.122 285.609 610.551 285.804 609.849 285.804C609.146 285.804 608.575 285.609 608.135 285.22C607.695 284.83 607.475 284.331 607.475 283.722ZM621.858 297.141C621.858 296.777 621.668 296.485 621.287 296.265C620.906 296.045 620.183 295.816 619.116 295.579C618.05 295.342 617.17 295.033 616.476 294.652C615.782 294.263 615.253 293.793 614.889 293.243C614.525 292.693 614.343 292.062 614.343 291.352C614.343 290.09 614.863 289.054 615.904 288.241C616.945 287.42 618.308 287.01 619.992 287.01C621.803 287.01 623.259 287.42 624.359 288.241C625.46 289.062 626.01 290.141 626.01 291.479H621.719C621.719 290.378 621.139 289.828 619.979 289.828C619.531 289.828 619.154 289.955 618.85 290.209C618.545 290.454 618.393 290.763 618.393 291.136C618.393 291.517 618.579 291.826 618.951 292.062C619.324 292.299 619.916 292.494 620.729 292.646C621.549 292.799 622.269 292.981 622.887 293.192C624.952 293.903 625.984 295.177 625.984 297.014C625.984 298.266 625.426 299.286 624.309 300.073C623.2 300.86 621.761 301.254 619.992 301.254C618.816 301.254 617.766 301.042 616.844 300.619C615.921 300.196 615.202 299.62 614.686 298.893C614.169 298.165 613.911 297.399 613.911 296.595H617.91C617.927 297.229 618.139 297.695 618.545 297.991C618.951 298.279 619.472 298.423 620.106 298.423C620.69 298.423 621.126 298.304 621.414 298.067C621.71 297.83 621.858 297.521 621.858 297.141ZM632.979 283.849V287.264H635.239V290.234H632.979V296.519C632.979 297.035 633.073 297.395 633.259 297.598C633.445 297.801 633.813 297.902 634.363 297.902C634.786 297.902 635.142 297.877 635.43 297.826V300.886C634.66 301.131 633.855 301.254 633.018 301.254C631.545 301.254 630.457 300.907 629.755 300.213C629.052 299.519 628.701 298.465 628.701 297.052V290.234H626.949V287.264H628.701V283.849H632.979Z" fill="black"/>
<rect x="691.5" y="323" width="2.5" height="12.5" fill="#C4C4C4"/>
<rect x="699" y="326.75" width="2.5" height="7.5" transform="rotate(-90 699 326.75)" fill="#C4C4C4"/>
<rect x="699" y="331.75" width="2.5" height="10" transform="rotate(-90 699 331.75)" fill="#C4C4C4"/>
<rect x="699" y="336.75" width="2.5" height="15" transform="rotate(-90 699 336.75)" fill="#C4C4C4"/>
<path d="M692.75 338L689.502 333.312L695.998 333.313L692.75 338Z" fill="#C4C4C4"/>
<rect x="436.5" y="350.5" width="285" height="199" rx="9.5" stroke="#C4C4C4"/>
<path d="M471.757 375H470.438V366.127H465.529V375H464.217V365.047H471.757V375ZM473.616 371.233C473.616 370.509 473.757 369.857 474.04 369.278C474.327 368.7 474.724 368.253 475.229 367.938C475.74 367.624 476.321 367.467 476.973 367.467C477.98 367.467 478.793 367.815 479.413 368.513C480.037 369.21 480.35 370.137 480.35 371.295V371.384C480.35 372.104 480.211 372.751 479.933 373.325C479.659 373.895 479.265 374.339 478.75 374.658C478.24 374.977 477.652 375.137 476.986 375.137C475.984 375.137 475.17 374.788 474.546 374.091C473.926 373.394 473.616 372.471 473.616 371.322V371.233ZM474.888 371.384C474.888 372.204 475.077 372.863 475.455 373.359C475.838 373.856 476.348 374.104 476.986 374.104C477.629 374.104 478.139 373.854 478.518 373.353C478.896 372.847 479.085 372.14 479.085 371.233C479.085 370.422 478.891 369.766 478.504 369.265C478.121 368.759 477.611 368.506 476.973 368.506C476.348 368.506 475.845 368.754 475.462 369.251C475.079 369.748 474.888 370.459 474.888 371.384ZM487.521 375H486.249V372.32C485.693 372.466 485.123 372.539 484.54 372.539C483.615 372.539 482.909 372.302 482.421 371.828C481.938 371.354 481.692 370.68 481.683 369.805V367.597H482.947V369.846C482.97 370.949 483.501 371.5 484.54 371.5C485.123 371.5 485.693 371.427 486.249 371.281V367.604H487.521V375ZM494.336 367.604H495.601V375H494.336V369.606L490.925 375H489.66V367.604H490.925V373.004L494.336 367.604ZM500.598 374.104C501.049 374.104 501.443 373.968 501.78 373.694C502.118 373.421 502.304 373.079 502.341 372.669H503.537C503.514 373.093 503.368 373.496 503.1 373.879C502.831 374.262 502.471 374.567 502.02 374.795C501.573 375.023 501.099 375.137 500.598 375.137C499.59 375.137 498.788 374.802 498.191 374.132C497.599 373.457 497.303 372.537 497.303 371.37V371.158C497.303 370.438 497.435 369.798 497.699 369.237C497.964 368.677 498.342 368.242 498.834 367.932C499.331 367.622 499.916 367.467 500.591 367.467C501.42 367.467 502.108 367.715 502.655 368.212C503.207 368.709 503.501 369.354 503.537 370.146H502.341C502.304 369.668 502.122 369.276 501.794 368.971C501.47 368.661 501.069 368.506 500.591 368.506C499.948 368.506 499.449 368.738 499.094 369.203C498.743 369.663 498.567 370.331 498.567 371.206V371.445C498.567 372.298 498.743 372.954 499.094 373.414C499.445 373.874 499.946 374.104 500.598 374.104ZM510.455 368.629H507.974V375H506.709V368.629H504.275V367.604H510.455V368.629ZM516.471 367.604H517.735V375H516.471V369.606L513.06 375H511.795V367.604H513.06V373.004L516.471 367.604ZM525.262 368.629H522.78V375H521.516V368.629H519.082V367.604H525.262V368.629ZM527.873 370.153H529.794C530.632 370.162 531.296 370.381 531.783 370.81C532.271 371.238 532.515 371.819 532.515 372.553C532.515 373.291 532.264 373.883 531.763 374.33C531.261 374.777 530.587 375 529.739 375H526.608V367.604H527.873V370.153ZM527.873 371.186V373.968H529.753C530.227 373.968 530.594 373.847 530.854 373.605C531.113 373.359 531.243 373.024 531.243 372.601C531.243 372.19 531.116 371.855 530.86 371.596C530.61 371.331 530.257 371.195 529.801 371.186H527.873ZM541.634 369.627C541.634 369.281 541.502 369.007 541.237 368.807C540.973 368.602 540.611 368.499 540.15 368.499C539.704 368.499 539.33 368.615 539.029 368.848C538.733 369.08 538.585 369.354 538.585 369.668H537.327C537.327 369.025 537.596 368.499 538.134 368.089C538.672 367.679 539.344 367.474 540.15 367.474C541.016 367.474 541.691 367.66 542.174 368.034C542.657 368.403 542.898 368.932 542.898 369.62C542.898 369.953 542.798 370.258 542.598 370.536C542.397 370.814 542.112 371.035 541.743 371.199C542.604 371.491 543.035 372.065 543.035 372.922C543.035 373.601 542.773 374.139 542.249 374.535C541.725 374.932 541.025 375.13 540.15 375.13C539.298 375.13 538.594 374.923 538.038 374.508C537.487 374.089 537.211 373.523 537.211 372.812H538.469C538.469 373.173 538.628 373.482 538.947 373.742C539.271 373.997 539.672 374.125 540.15 374.125C540.633 374.125 541.023 374.013 541.319 373.79C541.616 373.567 541.764 373.277 541.764 372.922C541.764 372.507 541.638 372.211 541.388 372.033C541.142 371.851 540.757 371.76 540.232 371.76H538.968V370.693H540.342C541.203 370.671 541.634 370.315 541.634 369.627ZM547.096 373.147L548.818 367.604H550.172L547.198 376.142C546.738 377.372 546.007 377.987 545.004 377.987L544.765 377.967L544.293 377.878V376.853L544.635 376.88C545.063 376.88 545.396 376.793 545.633 376.62C545.874 376.447 546.073 376.13 546.228 375.67L546.508 374.918L543.869 367.604H545.25L547.096 373.147ZM554.554 368.027C555.483 368.027 556.226 368.34 556.782 368.964C557.343 369.584 557.623 370.402 557.623 371.418V371.534C557.623 372.231 557.489 372.856 557.22 373.407C556.951 373.954 556.563 374.38 556.058 374.686C555.556 374.986 554.978 375.137 554.321 375.137C553.328 375.137 552.528 374.806 551.922 374.146C551.316 373.48 551.013 372.589 551.013 371.473V370.857C551.013 369.303 551.3 368.068 551.874 367.152C552.453 366.236 553.305 365.678 554.431 365.478C555.069 365.364 555.499 365.225 555.723 365.061C555.946 364.896 556.058 364.671 556.058 364.384H557.097C557.097 364.953 556.967 365.398 556.707 365.717C556.452 366.036 556.042 366.261 555.477 366.394L554.533 366.605C553.781 366.783 553.216 367.084 552.838 367.508C552.464 367.927 552.22 368.488 552.106 369.189C552.776 368.415 553.592 368.027 554.554 368.027ZM554.308 369.066C553.688 369.066 553.196 369.276 552.831 369.695C552.466 370.11 552.284 370.687 552.284 371.425V371.534C552.284 372.327 552.466 372.956 552.831 373.421C553.2 373.881 553.697 374.111 554.321 374.111C554.95 374.111 555.447 373.879 555.812 373.414C556.176 372.949 556.358 372.27 556.358 371.377C556.358 370.68 556.174 370.121 555.805 369.702C555.44 369.278 554.941 369.066 554.308 369.066ZM560.426 370.153H562.347C563.185 370.162 563.848 370.381 564.336 370.81C564.824 371.238 565.067 371.819 565.067 372.553C565.067 373.291 564.817 373.883 564.315 374.33C563.814 374.777 563.14 375 562.292 375H559.161V367.604H560.426V370.153ZM567.706 375H566.435V367.604H567.706V375ZM560.426 371.186V373.968H562.306C562.78 373.968 563.146 373.847 563.406 373.605C563.666 373.359 563.796 373.024 563.796 372.601C563.796 372.19 563.668 371.855 563.413 371.596C563.162 371.331 562.809 371.195 562.354 371.186H560.426Z" fill="black"/>
<rect x="672.5" y="360.5" width="19" height="19" rx="9.5" stroke="#C4C4C4"/>
<path d="M678 366L686 374" stroke="#C4C4C4"/>
<path d="M678 374L686 366" stroke="#C4C4C4"/>
<path d="M464.155 495V485.047H467.409C468.489 485.047 469.3 485.27 469.843 485.717C470.39 486.163 470.663 486.824 470.663 487.699C470.663 488.164 470.531 488.576 470.267 488.937C470.002 489.292 469.642 489.568 469.187 489.764C469.724 489.914 470.148 490.201 470.458 490.625C470.772 491.044 470.93 491.546 470.93 492.129C470.93 493.022 470.64 493.724 470.062 494.234C469.483 494.745 468.665 495 467.607 495H464.155ZM465.468 490.345V493.927H467.635C468.245 493.927 468.726 493.77 469.077 493.455C469.433 493.136 469.61 492.699 469.61 492.143C469.61 490.944 468.959 490.345 467.655 490.345H465.468ZM465.468 489.292H467.45C468.024 489.292 468.482 489.148 468.824 488.861C469.171 488.574 469.344 488.185 469.344 487.692C469.344 487.146 469.184 486.749 468.865 486.503C468.546 486.252 468.061 486.127 467.409 486.127H465.468V489.292ZM474.061 490.153H475.981C476.82 490.162 477.483 490.381 477.971 490.81C478.458 491.238 478.702 491.819 478.702 492.553C478.702 493.291 478.451 493.883 477.95 494.33C477.449 494.777 476.774 495 475.927 495H472.796V487.604H474.061V490.153ZM481.341 495H480.069V487.604H481.341V495ZM474.061 491.186V493.968H475.94C476.414 493.968 476.781 493.847 477.041 493.605C477.301 493.359 477.431 493.024 477.431 492.601C477.431 492.19 477.303 491.855 477.048 491.596C476.797 491.331 476.444 491.195 475.988 491.186H474.061ZM489.599 495H488.334V488.649H484.93V495H483.658V487.604H489.599V495ZM496.414 487.604H497.679V495H496.414V489.606L493.003 495H491.738V487.604H493.003V493.004L496.414 487.604ZM505.205 488.629H502.724V495H501.459V488.629H499.025V487.604H505.205V488.629ZM507.816 490.153H509.737C510.576 490.162 511.239 490.381 511.727 490.81C512.214 491.238 512.458 491.819 512.458 492.553C512.458 493.291 512.207 493.883 511.706 494.33C511.205 494.777 510.53 495 509.683 495H506.552V487.604H507.816V490.153ZM507.816 491.186V493.968H509.696C510.17 493.968 510.537 493.847 510.797 493.605C511.057 493.359 511.187 493.024 511.187 492.601C511.187 492.19 511.059 491.855 510.804 491.596C510.553 491.331 510.2 491.195 509.744 491.186H507.816ZM519.813 491.849H518.891V495H517.619V487.604H518.891V490.734H519.718L522.206 487.604H523.737L520.812 491.158L523.983 495H522.377L519.813 491.849ZM524.585 491.233C524.585 490.509 524.726 489.857 525.009 489.278C525.296 488.7 525.692 488.253 526.198 487.938C526.709 487.624 527.29 487.467 527.941 487.467C528.949 487.467 529.762 487.815 530.382 488.513C531.006 489.21 531.318 490.137 531.318 491.295V491.384C531.318 492.104 531.179 492.751 530.901 493.325C530.628 493.895 530.234 494.339 529.719 494.658C529.208 494.977 528.62 495.137 527.955 495.137C526.952 495.137 526.139 494.788 525.515 494.091C524.895 493.394 524.585 492.471 524.585 491.322V491.233ZM525.856 491.384C525.856 492.204 526.046 492.863 526.424 493.359C526.807 493.856 527.317 494.104 527.955 494.104C528.598 494.104 529.108 493.854 529.486 493.353C529.865 492.847 530.054 492.14 530.054 491.233C530.054 490.422 529.86 489.766 529.473 489.265C529.09 488.759 528.579 488.506 527.941 488.506C527.317 488.506 526.813 488.754 526.431 489.251C526.048 489.748 525.856 490.459 525.856 491.384ZM532.631 491.438C532.631 490.203 532.87 489.233 533.349 488.526C533.827 487.82 534.483 487.467 535.317 487.467C535.705 487.467 536.044 487.533 536.336 487.665V484.5H537.601V487.706C537.92 487.547 538.293 487.467 538.722 487.467C539.56 487.467 540.219 487.82 540.697 488.526C541.176 489.233 541.415 490.251 541.415 491.582C541.415 492.671 541.176 493.537 540.697 494.18C540.223 494.822 539.569 495.144 538.735 495.144C538.293 495.144 537.915 495.071 537.601 494.925V497.844H536.336V494.945C536.035 495.077 535.691 495.144 535.304 495.144C534.474 495.144 533.82 494.822 533.342 494.18C532.868 493.537 532.631 492.658 532.631 491.541V491.438ZM540.15 491.438C540.15 490.509 539.991 489.789 539.672 489.278C539.353 488.763 538.913 488.506 538.353 488.506C538.065 488.506 537.815 488.551 537.601 488.643V493.995C537.806 494.073 538.061 494.111 538.366 494.111C538.931 494.111 539.369 493.893 539.679 493.455C539.993 493.018 540.15 492.345 540.15 491.438ZM533.896 491.582C533.896 492.411 534.044 493.04 534.34 493.469C534.636 493.897 535.062 494.111 535.618 494.111C535.882 494.111 536.122 494.07 536.336 493.988V488.622C536.145 488.545 535.91 488.506 535.632 488.506C535.076 488.506 534.647 488.754 534.347 489.251C534.046 489.748 533.896 490.525 533.896 491.582ZM546.132 495.137C545.129 495.137 544.313 494.809 543.685 494.152C543.056 493.492 542.741 492.61 542.741 491.507V491.274C542.741 490.541 542.88 489.887 543.158 489.312C543.441 488.734 543.833 488.283 544.334 487.959C544.84 487.631 545.387 487.467 545.975 487.467C546.936 487.467 547.684 487.784 548.217 488.417C548.75 489.05 549.017 489.957 549.017 491.138V491.664H544.006C544.024 492.393 544.236 492.983 544.642 493.435C545.052 493.881 545.571 494.104 546.2 494.104C546.647 494.104 547.025 494.013 547.335 493.831C547.645 493.649 547.916 493.407 548.148 493.106L548.921 493.708C548.301 494.66 547.371 495.137 546.132 495.137ZM545.975 488.506C545.464 488.506 545.036 488.693 544.689 489.066C544.343 489.436 544.129 489.955 544.047 490.625H547.752V490.529C547.715 489.887 547.542 489.39 547.232 489.039C546.923 488.684 546.503 488.506 545.975 488.506Z" fill="black"/>
<rect x="672.5" y="480.5" width="19" height="19" rx="9.5" stroke="#C4C4C4"/>
<path d="M678 486L686 494" stroke="#C4C4C4"/>
<path d="M678 494L686 486" stroke="#C4C4C4"/>
<path d="M471.757 535H470.438V526.127H465.529V535H464.217V525.047H471.757V535ZM480.199 531.384C480.199 532.509 479.942 533.416 479.427 534.104C478.912 534.793 478.215 535.137 477.335 535.137C476.437 535.137 475.731 534.852 475.216 534.282V537.844H473.951V527.604H475.106L475.168 528.424C475.683 527.786 476.398 527.467 477.314 527.467C478.203 527.467 478.905 527.802 479.42 528.472C479.939 529.142 480.199 530.074 480.199 531.268V531.384ZM478.935 531.24C478.935 530.406 478.757 529.748 478.401 529.265C478.046 528.782 477.558 528.54 476.938 528.54C476.173 528.54 475.599 528.88 475.216 529.559V533.093C475.594 533.767 476.173 534.104 476.952 534.104C477.558 534.104 478.039 533.865 478.395 533.387C478.755 532.904 478.935 532.188 478.935 531.24ZM486.598 527.604H487.862V535H486.598V529.606L483.187 535H481.922V527.604H483.187V533.004L486.598 527.604ZM495.936 535H494.671V531.842H491.273V535H490.002V527.604H491.273V530.81H494.671V527.604H495.936V535ZM503.626 527.604V535H502.354V532.122H500.447L498.704 535H497.337L499.196 531.931C498.722 531.757 498.358 531.491 498.103 531.131C497.852 530.766 497.727 530.342 497.727 529.859C497.727 529.185 497.979 528.643 498.485 528.232C498.991 527.818 499.668 527.608 500.516 527.604H503.626ZM498.998 529.873C498.998 530.233 499.121 530.525 499.367 530.748C499.613 530.967 499.939 531.078 500.345 531.083H502.354V528.629H500.536C500.067 528.629 499.693 528.745 499.415 528.978C499.137 529.205 498.998 529.504 498.998 529.873ZM511.152 528.629H508.671V535H507.406V528.629H504.973V527.604H511.152V528.629ZM513.764 530.153H515.685C516.523 530.162 517.186 530.381 517.674 530.81C518.161 531.238 518.405 531.819 518.405 532.553C518.405 533.291 518.155 533.883 517.653 534.33C517.152 534.777 516.478 535 515.63 535H512.499V527.604H513.764V530.153ZM513.764 531.186V533.968H515.644C516.118 533.968 516.484 533.847 516.744 533.605C517.004 533.359 517.134 533.024 517.134 532.601C517.134 532.19 517.006 531.855 516.751 531.596C516.5 531.331 516.147 531.195 515.691 531.186H513.764ZM523.396 533.968L523.833 533.428C524.325 532.79 524.605 531.833 524.674 530.557L524.79 527.604H529.555V533.968H530.505V537.174H529.24V535H524.079V537.174H522.814L522.821 533.968H523.396ZM524.893 533.968H528.29V528.772H526.014L525.938 530.536C525.861 532.008 525.512 533.152 524.893 533.968ZM534.326 533.147L536.049 527.604H537.402L534.429 536.142C533.968 537.372 533.237 537.987 532.234 537.987L531.995 537.967L531.523 537.878V536.853L531.865 536.88C532.294 536.88 532.626 536.793 532.863 536.62C533.105 536.447 533.303 536.13 533.458 535.67L533.738 534.918L531.1 527.604H532.48L534.326 533.147ZM539.918 527.604V533.968H542.625V527.604H543.89V533.968H546.59V527.604H547.861V535H538.646V527.604H539.918Z" fill="black"/>
<rect x="672.5" y="520.5" width="19" height="19" rx="9.5" stroke="#C4C4C4"/>
<path d="M678 526L686 534" stroke="#C4C4C4"/>
<path d="M678 534L686 526" stroke="#C4C4C4"/>
<path d="M467.573 450.823L469.863 445.047H471.388L467.867 453.339C467.63 453.868 467.409 454.243 467.204 454.467C466.999 454.686 466.757 454.854 466.479 454.973C466.206 455.087 465.862 455.144 465.447 455.144C465.087 455.144 464.857 455.123 464.757 455.082L464.798 454.043L465.42 454.07C465.898 454.07 466.254 453.84 466.486 453.38L466.657 453.024L466.917 452.416L463.526 445.047H464.996L467.573 450.823ZM476.323 453.325L478.839 447.604H480.418V455H479.153V449.62L476.761 455H475.886L473.445 449.504V455H472.181V447.604H473.821L476.323 453.325ZM483.836 450.153H485.757C486.595 450.162 487.258 450.381 487.746 450.81C488.234 451.238 488.478 451.819 488.478 452.553C488.478 453.291 488.227 453.883 487.726 454.33C487.224 454.777 486.55 455 485.702 455H482.571V447.604H483.836V450.153ZM491.116 455H489.845V447.604H491.116V455ZM483.836 451.186V453.968H485.716C486.19 453.968 486.557 453.847 486.816 453.605C487.076 453.359 487.206 453.024 487.206 452.601C487.206 452.19 487.078 451.855 486.823 451.596C486.573 451.331 486.219 451.195 485.764 451.186H483.836ZM498.82 448.629H496.339V455H495.074V448.629H492.641V447.604H498.82V448.629ZM501.432 450.153H503.353C504.191 450.162 504.854 450.381 505.342 450.81C505.829 451.238 506.073 451.819 506.073 452.553C506.073 453.291 505.823 453.883 505.321 454.33C504.82 454.777 504.146 455 503.298 455H500.167V447.604H501.432V450.153ZM501.432 451.186V453.968H503.312C503.785 453.968 504.152 453.847 504.412 453.605C504.672 453.359 504.802 453.024 504.802 452.601C504.802 452.19 504.674 451.855 504.419 451.596C504.168 451.331 503.815 451.195 503.359 451.186H501.432ZM510.619 454.104C511.07 454.104 511.465 453.968 511.802 453.694C512.139 453.421 512.326 453.079 512.362 452.669H513.559C513.536 453.093 513.39 453.496 513.121 453.879C512.852 454.262 512.492 454.567 512.041 454.795C511.594 455.023 511.12 455.137 510.619 455.137C509.612 455.137 508.81 454.802 508.213 454.132C507.62 453.457 507.324 452.537 507.324 451.37V451.158C507.324 450.438 507.456 449.798 507.721 449.237C507.985 448.677 508.363 448.242 508.855 447.932C509.352 447.622 509.938 447.467 510.612 447.467C511.442 447.467 512.13 447.715 512.677 448.212C513.228 448.709 513.522 449.354 513.559 450.146H512.362C512.326 449.668 512.144 449.276 511.815 448.971C511.492 448.661 511.091 448.506 510.612 448.506C509.97 448.506 509.471 448.738 509.115 449.203C508.764 449.663 508.589 450.331 508.589 451.206V451.445C508.589 452.298 508.764 452.954 509.115 453.414C509.466 453.874 509.967 454.104 510.619 454.104ZM520.634 447.604V455H519.362V452.122H517.455L515.712 455H514.345L516.204 451.931C515.73 451.757 515.366 451.491 515.11 451.131C514.86 450.766 514.734 450.342 514.734 449.859C514.734 449.185 514.987 448.643 515.493 448.232C515.999 447.818 516.676 447.608 517.523 447.604H520.634ZM516.006 449.873C516.006 450.233 516.129 450.525 516.375 450.748C516.621 450.967 516.947 451.078 517.353 451.083H519.362V448.629H517.544C517.075 448.629 516.701 448.745 516.423 448.978C516.145 449.205 516.006 449.504 516.006 449.873Z" fill="black"/>
<rect x="672.5" y="440.5" width="19" height="19" rx="9.5" stroke="#C4C4C4"/>
<path d="M678 446L686 454" stroke="#C4C4C4"/>
<path d="M678 454L686 446" stroke="#C4C4C4"/>
<path d="M466.739 410.529H465.529V415H464.217V405.047H465.529V409.436H466.555L470.034 405.047H471.668L467.867 409.873L471.948 415H470.342L466.739 410.529ZM475.1 413.147L476.822 407.604H478.176L475.202 416.142C474.742 417.372 474.01 417.987 473.008 417.987L472.769 417.967L472.297 417.878V416.853L472.639 416.88C473.067 416.88 473.4 416.793 473.637 416.62C473.878 416.447 474.076 416.13 474.231 415.67L474.512 414.918L471.873 407.604H473.254L475.1 413.147ZM485.36 415H484.096V408.649H480.691V415H479.42V407.604H485.36V415ZM492.176 407.604H493.44V415H492.176V409.606L488.765 415H487.5V407.604H488.765V413.004L492.176 407.604ZM500.967 408.629H498.485V415H497.221V408.629H494.787V407.604H500.967V408.629ZM503.578 410.153H505.499C506.338 410.162 507.001 410.381 507.488 410.81C507.976 411.238 508.22 411.819 508.22 412.553C508.22 413.291 507.969 413.883 507.468 414.33C506.966 414.777 506.292 415 505.444 415H502.313V407.604H503.578V410.153ZM503.578 411.186V413.968H505.458C505.932 413.968 506.299 413.847 506.559 413.605C506.818 413.359 506.948 413.024 506.948 412.601C506.948 412.19 506.821 411.855 506.565 411.596C506.315 411.331 505.962 411.195 505.506 411.186H503.578ZM517.339 409.627C517.339 409.281 517.207 409.007 516.942 408.807C516.678 408.602 516.316 408.499 515.855 408.499C515.409 408.499 515.035 408.615 514.734 408.848C514.438 409.08 514.29 409.354 514.29 409.668H513.032C513.032 409.025 513.301 408.499 513.839 408.089C514.377 407.679 515.049 407.474 515.855 407.474C516.721 407.474 517.396 407.66 517.879 408.034C518.362 408.403 518.604 408.932 518.604 409.62C518.604 409.953 518.503 410.258 518.303 410.536C518.102 410.814 517.817 411.035 517.448 411.199C518.31 411.491 518.74 412.065 518.74 412.922C518.74 413.601 518.478 414.139 517.954 414.535C517.43 414.932 516.73 415.13 515.855 415.13C515.003 415.13 514.299 414.923 513.743 414.508C513.192 414.089 512.916 413.523 512.916 412.812H514.174C514.174 413.173 514.333 413.482 514.652 413.742C514.976 413.997 515.377 414.125 515.855 414.125C516.339 414.125 516.728 414.013 517.024 413.79C517.321 413.567 517.469 413.277 517.469 412.922C517.469 412.507 517.343 412.211 517.093 412.033C516.847 411.851 516.462 411.76 515.938 411.76H514.673V410.693H516.047C516.908 410.671 517.339 410.315 517.339 409.627ZM522.801 413.147L524.523 407.604H525.877L522.903 416.142C522.443 417.372 521.712 417.987 520.709 417.987L520.47 417.967L519.998 417.878V416.853L520.34 416.88C520.768 416.88 521.101 416.793 521.338 416.62C521.579 416.447 521.778 416.13 521.933 415.67L522.213 414.918L519.574 407.604H520.955L522.801 413.147ZM530.259 408.027C531.188 408.027 531.931 408.34 532.487 408.964C533.048 409.584 533.328 410.402 533.328 411.418V411.534C533.328 412.231 533.194 412.856 532.925 413.407C532.656 413.954 532.269 414.38 531.763 414.686C531.261 414.986 530.683 415.137 530.026 415.137C529.033 415.137 528.233 414.806 527.627 414.146C527.021 413.48 526.718 412.589 526.718 411.473V410.857C526.718 409.303 527.005 408.068 527.579 407.152C528.158 406.236 529.01 405.678 530.136 405.478C530.774 405.364 531.204 405.225 531.428 405.061C531.651 404.896 531.763 404.671 531.763 404.384H532.802C532.802 404.953 532.672 405.398 532.412 405.717C532.157 406.036 531.747 406.261 531.182 406.394L530.238 406.605C529.486 406.783 528.921 407.084 528.543 407.508C528.169 407.927 527.925 408.488 527.812 409.189C528.481 408.415 529.297 408.027 530.259 408.027ZM530.013 409.066C529.393 409.066 528.901 409.276 528.536 409.695C528.172 410.11 527.989 410.687 527.989 411.425V411.534C527.989 412.327 528.172 412.956 528.536 413.421C528.905 413.881 529.402 414.111 530.026 414.111C530.655 414.111 531.152 413.879 531.517 413.414C531.881 412.949 532.063 412.27 532.063 411.377C532.063 410.68 531.879 410.121 531.51 409.702C531.145 409.278 530.646 409.066 530.013 409.066ZM540.67 415H539.405V411.842H536.008V415H534.736V407.604H536.008V410.81H539.405V407.604H540.67V415ZM545.127 413.147L546.85 407.604H548.203L545.229 416.142C544.769 417.372 544.038 417.987 543.035 417.987L542.796 417.967L542.324 417.878V416.853L542.666 416.88C543.094 416.88 543.427 416.793 543.664 416.62C543.906 416.447 544.104 416.13 544.259 415.67L544.539 414.918L541.9 407.604H543.281L545.127 413.147ZM550.719 410.741H552.496C552.592 409.757 552.94 408.966 553.542 408.369C554.148 407.768 554.911 407.467 555.832 407.467C556.798 407.467 557.589 407.793 558.204 408.444C558.819 409.096 559.152 409.944 559.202 410.987L559.209 411.384C559.209 412.104 559.068 412.753 558.785 413.332C558.503 413.911 558.106 414.357 557.596 414.672C557.085 414.982 556.502 415.137 555.846 415.137C554.893 415.137 554.114 414.827 553.508 414.207C552.902 413.583 552.562 412.774 552.489 411.78H550.719V415H549.454V407.604H550.719V410.741ZM553.74 411.384C553.74 412.204 553.929 412.863 554.308 413.359C554.69 413.856 555.203 414.104 555.846 414.104C556.488 414.104 556.996 413.852 557.37 413.346C557.748 412.84 557.938 412.136 557.938 411.233C557.938 410.427 557.746 409.771 557.363 409.265C556.98 408.759 556.47 408.506 555.832 408.506C555.203 408.506 554.697 408.754 554.314 409.251C553.932 409.748 553.74 410.459 553.74 411.384ZM570.29 415H569.025V408.649H565.621V415H564.35V407.604H570.29V415ZM576.887 415C576.814 414.854 576.755 414.594 576.709 414.221C576.121 414.831 575.419 415.137 574.604 415.137C573.874 415.137 573.275 414.932 572.806 414.521C572.341 414.107 572.108 413.583 572.108 412.949C572.108 412.179 572.4 411.582 572.983 411.158C573.571 410.73 574.396 410.516 575.458 410.516H576.688V409.935C576.688 409.493 576.556 409.142 576.292 408.882C576.028 408.618 575.638 408.485 575.123 408.485C574.672 408.485 574.294 408.599 573.988 408.827C573.683 409.055 573.53 409.331 573.53 409.654H572.259C572.259 409.285 572.389 408.93 572.648 408.588C572.913 408.242 573.268 407.968 573.715 407.768C574.166 407.567 574.66 407.467 575.198 407.467C576.05 407.467 576.718 407.681 577.201 408.109C577.684 408.533 577.935 409.119 577.953 409.866V413.271C577.953 413.95 578.04 414.49 578.213 414.891V415H576.887ZM574.788 414.036C575.185 414.036 575.561 413.934 575.916 413.729C576.271 413.523 576.529 413.257 576.688 412.929V411.411H575.697C574.148 411.411 573.373 411.865 573.373 412.771C573.373 413.168 573.505 413.478 573.77 413.701C574.034 413.924 574.373 414.036 574.788 414.036ZM582.902 414.104C583.354 414.104 583.748 413.968 584.085 413.694C584.422 413.421 584.609 413.079 584.646 412.669H585.842C585.819 413.093 585.673 413.496 585.404 413.879C585.135 414.262 584.775 414.567 584.324 414.795C583.878 415.023 583.404 415.137 582.902 415.137C581.895 415.137 581.093 414.802 580.496 414.132C579.904 413.457 579.607 412.537 579.607 411.37V411.158C579.607 410.438 579.74 409.798 580.004 409.237C580.268 408.677 580.646 408.242 581.139 407.932C581.635 407.622 582.221 407.467 582.896 407.467C583.725 407.467 584.413 407.715 584.96 408.212C585.511 408.709 585.805 409.354 585.842 410.146H584.646C584.609 409.668 584.427 409.276 584.099 408.971C583.775 408.661 583.374 408.506 582.896 408.506C582.253 408.506 581.754 408.738 581.398 409.203C581.048 409.663 580.872 410.331 580.872 411.206V411.445C580.872 412.298 581.048 412.954 581.398 413.414C581.749 413.874 582.251 414.104 582.902 414.104ZM592.76 408.629H590.278V415H589.014V408.629H586.58V407.604H592.76V408.629ZM596.492 413.147L598.215 407.604H599.568L596.595 416.142C596.134 417.372 595.403 417.987 594.4 417.987L594.161 417.967L593.689 417.878V416.853L594.031 416.88C594.46 416.88 594.792 416.793 595.029 416.62C595.271 416.447 595.469 416.13 595.624 415.67L595.904 414.918L593.266 407.604H594.646L596.492 413.147Z" fill="black"/>
<rect x="672.5" y="400.5" width="19" height="19" rx="9.5" stroke="#C4C4C4"/>
<path d="M678 406L686 414" stroke="#C4C4C4"/>
<path d="M678 414L686 406" stroke="#C4C4C4"/>
<rect x="500" y="568" width="150" height="42" rx="21" fill="#833AE0"/>
<path d="M563.475 596.44H562.169V594H555.025V596.447H553.713L553.706 592.927H554.52C554.948 592.444 555.287 591.797 555.538 590.985C555.793 590.17 555.953 589.276 556.017 588.306L556.235 584.047H562.189V592.927H563.488L563.475 596.44ZM556.017 592.927H560.87V585.127H557.5L557.356 588.053C557.297 589.197 557.145 590.172 556.898 590.979C556.657 591.785 556.363 592.435 556.017 592.927ZM564.514 590.233C564.514 589.509 564.655 588.857 564.938 588.278C565.225 587.7 565.621 587.253 566.127 586.938C566.637 586.624 567.218 586.467 567.87 586.467C568.877 586.467 569.691 586.815 570.311 587.513C570.935 588.21 571.247 589.137 571.247 590.295V590.384C571.247 591.104 571.108 591.751 570.83 592.325C570.557 592.895 570.162 593.339 569.647 593.658C569.137 593.977 568.549 594.137 567.884 594.137C566.881 594.137 566.068 593.788 565.443 593.091C564.824 592.394 564.514 591.471 564.514 590.322V590.233ZM565.785 590.384C565.785 591.204 565.974 591.863 566.353 592.359C566.735 592.856 567.246 593.104 567.884 593.104C568.526 593.104 569.037 592.854 569.415 592.353C569.793 591.847 569.982 591.14 569.982 590.233C569.982 589.422 569.789 588.766 569.401 588.265C569.019 587.759 568.508 587.506 567.87 587.506C567.246 587.506 566.742 587.754 566.359 588.251C565.977 588.748 565.785 589.459 565.785 590.384ZM576.08 587.027C577.01 587.027 577.753 587.34 578.309 587.964C578.869 588.584 579.149 589.402 579.149 590.418V590.534C579.149 591.231 579.015 591.856 578.746 592.407C578.477 592.954 578.09 593.38 577.584 593.686C577.083 593.986 576.504 594.137 575.848 594.137C574.854 594.137 574.054 593.806 573.448 593.146C572.842 592.48 572.539 591.589 572.539 590.473V589.857C572.539 588.303 572.826 587.068 573.4 586.152C573.979 585.236 574.831 584.678 575.957 584.478C576.595 584.364 577.026 584.225 577.249 584.061C577.472 583.896 577.584 583.671 577.584 583.384H578.623C578.623 583.953 578.493 584.398 578.233 584.717C577.978 585.036 577.568 585.261 577.003 585.394L576.06 585.605C575.308 585.783 574.743 586.084 574.364 586.508C573.991 586.927 573.747 587.488 573.633 588.189C574.303 587.415 575.118 587.027 576.08 587.027ZM575.834 588.066C575.214 588.066 574.722 588.276 574.357 588.695C573.993 589.11 573.811 589.687 573.811 590.425V590.534C573.811 591.327 573.993 591.956 574.357 592.421C574.727 592.881 575.223 593.111 575.848 593.111C576.477 593.111 576.973 592.879 577.338 592.414C577.702 591.949 577.885 591.27 577.885 590.377C577.885 589.68 577.7 589.121 577.331 588.702C576.966 588.278 576.467 588.066 575.834 588.066ZM585.138 594C585.065 593.854 585.006 593.594 584.96 593.221C584.372 593.831 583.67 594.137 582.854 594.137C582.125 594.137 581.526 593.932 581.057 593.521C580.592 593.107 580.359 592.583 580.359 591.949C580.359 591.179 580.651 590.582 581.234 590.158C581.822 589.73 582.647 589.516 583.709 589.516H584.939V588.935C584.939 588.493 584.807 588.142 584.543 587.882C584.279 587.618 583.889 587.485 583.374 587.485C582.923 587.485 582.545 587.599 582.239 587.827C581.934 588.055 581.781 588.331 581.781 588.654H580.51C580.51 588.285 580.64 587.93 580.899 587.588C581.164 587.242 581.519 586.968 581.966 586.768C582.417 586.567 582.911 586.467 583.449 586.467C584.301 586.467 584.969 586.681 585.452 587.109C585.935 587.533 586.186 588.119 586.204 588.866V592.271C586.204 592.95 586.291 593.49 586.464 593.891V594H585.138ZM583.039 593.036C583.436 593.036 583.812 592.934 584.167 592.729C584.522 592.523 584.78 592.257 584.939 591.929V590.411H583.948C582.399 590.411 581.624 590.865 581.624 591.771C581.624 592.168 581.756 592.478 582.021 592.701C582.285 592.924 582.624 593.036 583.039 593.036ZM588.303 594V586.604H591.188C592.172 586.604 592.926 586.777 593.45 587.123C593.979 587.465 594.243 587.968 594.243 588.634C594.243 588.976 594.141 589.285 593.936 589.563C593.73 589.837 593.427 590.047 593.026 590.192C593.473 590.297 593.831 590.502 594.1 590.808C594.373 591.113 594.51 591.478 594.51 591.901C594.51 592.58 594.259 593.1 593.758 593.46C593.261 593.82 592.557 594 591.646 594H588.303ZM589.567 590.753V592.981H591.659C592.188 592.981 592.582 592.883 592.842 592.688C593.106 592.492 593.238 592.216 593.238 591.86C593.238 591.122 592.696 590.753 591.611 590.753H589.567ZM589.567 589.741H591.201C592.386 589.741 592.979 589.395 592.979 588.702C592.979 588.009 592.418 587.652 591.297 587.629H589.567V589.741ZM600.97 586.604H602.234V594H600.97V588.606L597.559 594H596.294V586.604H597.559V592.004L600.97 586.604ZM609.761 587.629H607.279V594H606.015V587.629H603.581V586.604H609.761V587.629ZM612.372 589.153H614.293C615.132 589.162 615.795 589.381 616.282 589.81C616.77 590.238 617.014 590.819 617.014 591.553C617.014 592.291 616.763 592.883 616.262 593.33C615.76 593.777 615.086 594 614.238 594H611.107V586.604H612.372V589.153ZM612.372 590.186V592.968H614.252C614.726 592.968 615.093 592.847 615.353 592.605C615.612 592.359 615.742 592.024 615.742 591.601C615.742 591.19 615.615 590.855 615.359 590.596C615.109 590.331 614.756 590.195 614.3 590.186H612.372Z" fill="white"/>
<rect x="500" y="568" width="42" height="42" rx="21" fill="#9953F1"/>
<path d="M521.608 588.661H524.384V589.857H521.608V593.002H520.337V589.857H517.562V588.661H520.337V585.756H521.608V588.661Z" fill="white"/>
<rect x="408.5" y="232.5" width="335" height="396" rx="9.5" stroke="#C4C4C4"/>
</svg>
